<svg width="611" height="650" viewBox="0 0 611 650" fill="none" xmlns="http://www.w3.org/2000/svg">
<g filter="url(#filter0_f_21_4118)">
<circle cx="305.624" cy="305.148" r="255.148" fill="#7B4AE2" fill-opacity="0.2"/>
</g>
<g filter="url(#filter1_i_21_4118)">
<path fill-rule="evenodd" clip-rule="evenodd" d="M258.636 404.465C295.391 424.056 336.608 421.88 368.901 404.463V447.383L369.266 447.373V472.573H258.636V404.465Z" fill="#8A542F"/>
<path fill-rule="evenodd" clip-rule="evenodd" d="M258.635 440.226C295.39 459.819 336.607 457.642 368.901 440.226V467.595L393.734 466.977L394.042 466.988C394.042 532.959 236.326 542.834 236.326 466.889L236.942 466.861L258.635 466.972V440.226Z" fill="#9B5E34"/>
<path fill-rule="evenodd" clip-rule="evenodd" d="M194.067 169.098C281.781 113.249 393.996 133.109 431.909 169.937C442.87 196.314 443.645 221.755 440.42 249.065C447.825 243.751 456.631 244.967 463.569 249.916C466.38 272.577 473.909 317.405 440.169 319.35C428.553 463.956 215.72 481.955 186.95 319.823C153.51 318.669 162.527 273.364 164.616 251.608C172.639 245.504 181.801 248.576 187.487 251.307L194.067 169.098Z" fill="#9B5E34"/>
<path fill-rule="evenodd" clip-rule="evenodd" d="M181.039 230.339C181.499 231.604 180.002 232.87 175.511 235.172C166.215 239.815 165.4 240.78 165.377 248.053V248.405C165.377 258.185 166.874 260.715 173.322 261.637C179.887 262.558 184.034 264.053 185.186 265.894C185.645 266.7 186.107 270.382 186.107 274.179C186.107 282.349 188.64 293.856 191.75 299.839C200.502 316.87 223.304 325.5 250.943 322.278C264.533 320.551 272.479 317.905 281.116 312.151C294.015 303.522 300.003 292.475 300.924 275.1C301.616 264.513 301.616 264.513 305.071 263.362C309.562 261.752 320.733 261.752 325.34 263.362C328.909 264.628 328.909 264.628 328.909 272.799C328.909 282.234 331.328 293.511 334.552 299.84C343.305 316.87 366.107 325.5 393.631 322.278C407.336 320.552 415.282 317.905 423.92 312.153C436.818 303.523 442.807 292.131 443.958 274.295C444.764 262.558 444.189 263.133 456.857 261.522C463.305 260.717 464.803 258.185 464.803 248.289C464.803 240.464 463.536 238.97 452.826 234.367L446.376 231.604L436.357 228.499L428.987 226.888C424.956 226.082 419.774 225.391 417.585 225.276C415.282 225.276 409.525 223.204 403.767 220.329C394.207 215.61 393.747 215.495 382.461 215.495C369.563 215.495 360.464 218.142 353.093 223.896C350.906 225.621 346.299 227.807 343.074 228.613C339.734 229.419 333.516 231.605 329.255 233.446C318.084 238.164 312.326 237.934 298.046 232.18C291.827 229.65 285.953 227.577 285.148 227.577C284.34 227.577 281.692 225.967 279.274 224.011C271.673 218.027 263.151 215.495 250.022 215.495C238.851 215.495 238.161 215.726 228.257 220.444C221.577 223.666 216.394 225.276 213.285 225.276C210.75 225.391 205.223 226.082 201.077 227.003L181.039 230.339ZM273.17 245.183C286.988 249.67 291.249 255.768 291.365 271.187C291.48 279.358 291.02 282.005 288.832 286.491C281.232 302.026 259.58 310.772 233.898 308.815C214.206 307.204 204.071 301.681 198.659 289.484C195.204 281.544 194.743 262.558 197.967 256.689C200.962 251.165 206.721 247.369 216.163 244.837C223.534 242.881 227.565 242.651 245.991 242.881C261.883 243.226 268.794 243.802 273.17 245.183ZM415.972 245.183C429.793 249.67 434.053 255.768 434.169 271.187C434.284 279.358 433.823 282.005 431.635 286.491C424.034 302.026 402.383 310.772 376.701 308.815C357.009 307.204 346.874 301.681 341.461 289.484C338.006 281.544 337.546 262.558 340.77 256.689C343.765 251.165 349.523 247.369 358.966 244.837C366.337 242.881 370.367 242.651 388.793 242.881C404.686 243.226 411.596 243.802 415.972 245.183Z" fill="#A66F49"/>
<path fill-rule="evenodd" clip-rule="evenodd" d="M284.225 56.6225L276.97 61.3407L273.284 57.7733C267.526 52.1353 264.762 53.1709 260.386 62.4914C257.737 68.2445 254.398 68.9354 248.64 65.1377C246.336 63.527 243.457 62.146 242.306 62.146C239.772 62.146 237.353 66.0582 236.317 71.2362C235.511 75.4938 232.747 79.406 230.444 79.406C229.638 79.406 226.643 78.3704 223.765 77.1045C219.388 75.1484 218.006 75.0333 215.588 76.0689C212.824 77.3348 212.593 78.025 212.593 85.6197C212.593 91.1432 211.787 95.4008 210.29 98.6227C208.102 103.455 207.987 103.571 202.574 103.571C193.591 103.571 189.33 108.058 193.706 113.006C196.01 115.422 194.512 117.954 190.022 118.99C181.729 121.061 179.311 126.354 183.802 131.992C186.912 136.019 186.797 136.595 181.844 138.897C176.662 141.428 175.857 144.305 179.196 147.872C181.729 150.634 181.729 150.748 180.347 165.938C178.966 180.666 179.426 221.746 181.039 226.003C181.499 227.269 180.002 228.535 175.511 230.836C166.067 235.554 165.377 236.474 165.377 244.069C165.377 253.85 166.874 256.381 173.323 257.302C179.887 258.222 184.033 259.718 185.185 261.559C185.645 262.365 186.106 266.047 186.106 269.844C186.106 278.014 188.64 289.521 191.749 295.504C200.502 312.535 223.304 321.164 250.944 317.943C264.533 316.217 272.479 313.57 281.116 307.817C294.015 299.187 300.003 288.14 300.925 270.765C301.616 260.178 301.616 260.178 305.071 259.028C309.562 257.417 320.733 257.417 325.339 259.028C328.91 260.294 328.91 260.294 328.91 268.464C328.91 277.9 331.328 289.176 334.553 295.505C343.305 312.535 366.107 321.165 393.631 317.944C407.336 316.217 415.282 313.571 423.92 307.818C436.818 299.188 442.807 287.796 443.958 269.96C444.764 258.223 444.189 258.799 456.857 257.187C463.306 256.382 464.803 253.85 464.803 243.955C464.803 236.13 463.536 234.634 452.826 230.032L446.377 227.27V215.763C446.261 196.086 443.498 182.163 438.66 177.675C437.048 176.18 433.478 173.878 430.599 172.497C426.108 170.311 425.187 170.196 423.805 171.692C422.423 173.073 422.768 174.339 426.223 181.243C430.484 189.758 434.284 204.141 435.551 216.569L436.357 224.164L428.987 222.552C424.956 221.747 419.774 221.057 417.585 220.942C415.282 220.942 409.524 218.87 403.766 215.994C394.207 211.276 393.747 211.16 382.461 211.16C369.562 211.16 360.464 213.807 353.094 219.56C350.906 221.287 346.299 223.473 343.075 224.279C339.735 225.084 333.516 227.27 329.255 229.111C318.084 233.829 312.326 233.599 298.045 227.845C291.827 225.314 285.953 223.243 285.147 223.243C284.341 223.243 281.692 221.632 279.274 219.676C271.673 213.692 263.151 211.16 250.022 211.16C238.851 211.16 238.16 211.391 228.256 216.108C221.576 219.33 216.394 220.942 213.285 220.942C210.751 221.057 205.223 221.747 201.078 222.667C189.331 225.199 190.252 226.695 191.173 207.363C191.864 190.794 194.052 176.756 196.586 171.922C199.465 166.514 222.267 154.892 244.84 147.298C272.825 137.977 304.264 134.41 339.735 136.827C370.138 138.783 378.2 141.314 411.828 159.38C423.574 165.709 434.515 170.772 437.048 171.117C441.195 171.692 441.54 171.462 442.806 168.009C445.571 160.07 443.382 140.048 438.776 130.958C435.321 124.284 435.091 121.752 437.048 114.848C438.43 110.015 438.43 108.98 436.703 106.448C435.091 104.032 433.939 103.572 429.333 103.572C426.338 103.687 421.732 104.147 419.083 104.607C414.361 105.528 414.246 105.528 414.822 102.536C417.125 91.2596 414.361 88.7278 403.19 91.6044C399.62 92.5249 396.28 93.1006 396.05 92.7551C395.705 92.4104 396.05 88.9581 396.856 85.1611C398.237 78.9474 398.123 77.9118 396.511 76.1853C394.783 74.5747 393.747 74.5747 387.067 75.8406C376.357 78.0269 372.326 76.9913 368.41 71.0073C364.38 65.139 360.694 63.0678 356.894 64.5633C354.821 65.3686 352.633 65.0239 348.487 63.1829C344.11 61.342 341.577 60.8814 337.662 61.4565C333.631 62.1473 331.443 61.6867 327.642 59.7307C323.727 57.7746 321.539 57.4292 316.817 58.0042C311.75 58.5799 309.907 58.1193 304.034 55.2428C300.349 53.4018 295.973 51.9057 294.36 51.7905C292.748 51.7905 288.256 53.9769 284.226 56.6238L284.225 56.6225ZM273.169 240.847C286.989 245.335 291.25 251.434 291.365 266.853C291.481 275.022 291.02 277.669 288.832 282.157C281.231 297.691 259.58 306.436 233.898 304.48C214.206 302.869 204.071 297.346 198.659 285.148C195.204 277.209 194.743 258.222 197.967 252.354C200.962 246.831 206.72 243.034 216.163 240.502C223.534 238.546 227.565 238.315 245.991 238.546C261.883 238.891 268.793 239.466 273.169 240.847ZM415.972 240.847C429.792 245.335 434.053 251.434 434.168 266.853C434.284 275.022 433.823 277.669 431.635 282.157C424.034 297.691 402.383 306.436 376.701 304.48C357.009 302.869 346.874 297.346 341.462 285.148C338.007 277.209 337.546 258.222 340.77 252.354C343.765 246.831 349.523 243.034 358.966 240.502C366.337 238.546 370.368 238.315 388.794 238.546C404.686 238.891 411.596 239.466 415.972 240.847Z" fill="#2C1B18"/>
<path fill-rule="evenodd" clip-rule="evenodd" d="M236.087 254.771C229.983 257.647 222.957 264.897 222.957 268.349C222.957 270.995 224.8 270.995 228.37 268.119C237.698 260.754 257.507 260.754 267.641 268.003C269.599 269.269 271.672 270.419 272.363 270.419C274.781 270.419 273.63 266.277 269.945 261.904C265.108 255.921 256.471 252.009 248.293 252.009C244.032 252.009 240.002 252.929 236.087 254.77V254.771Z" fill="#533824"/>
<path fill-rule="evenodd" clip-rule="evenodd" d="M369.677 254.771C363.573 257.647 356.548 264.897 356.548 268.349C356.548 270.995 358.391 270.995 361.961 268.119C371.289 260.754 391.097 260.754 401.232 268.003C403.189 269.269 405.262 270.419 405.954 270.419C408.372 270.419 407.22 266.277 403.535 261.904C398.698 255.921 390.061 252.009 381.884 252.009C377.623 252.009 373.593 252.929 369.677 254.77L369.677 254.771Z" fill="#533824"/>
<path fill-rule="evenodd" clip-rule="evenodd" d="M288.256 309.773C289.523 314.721 293.208 318.634 299.657 321.741C304.84 324.272 307.488 324.848 315.089 324.848C322.69 324.848 325.339 324.272 330.521 321.741C336.97 318.634 340.655 314.722 341.922 309.773L342.498 307.242H315.089H287.68L288.256 309.773Z" fill="#AF754C"/>
<path fill-rule="evenodd" clip-rule="evenodd" d="M181.039 226.003C181.499 227.269 180.002 228.535 175.511 230.836C166.215 235.479 165.4 236.446 165.377 243.718V244.07C165.377 253.85 166.874 256.381 173.322 257.302C179.887 258.222 184.034 259.718 185.186 261.559C185.645 262.365 186.107 266.047 186.107 269.844C186.107 278.014 188.64 289.522 191.75 295.504C200.502 312.535 223.304 321.164 250.943 317.943C264.533 316.216 272.479 313.57 281.116 307.817C294.015 299.187 300.003 288.141 300.924 270.765C301.616 260.178 301.616 260.178 305.071 259.028C309.562 257.418 320.733 257.418 325.34 259.028C328.909 260.293 328.909 260.293 328.909 268.464C328.909 277.899 331.328 289.176 334.552 295.506C343.305 312.535 366.107 321.164 393.631 317.943C407.336 316.217 415.282 313.57 423.92 307.818C436.818 299.188 442.807 287.796 443.958 269.96C444.764 258.222 444.189 258.799 456.857 257.187C463.305 256.382 464.803 253.85 464.803 243.954C464.803 236.13 463.536 234.635 452.826 230.032L446.376 227.269L436.357 224.164L428.987 222.552C424.956 221.747 419.774 221.056 417.585 220.941C415.282 220.941 409.525 218.87 403.767 215.994C394.207 211.276 393.747 211.16 382.461 211.16C369.563 211.16 360.464 213.807 353.093 219.561C350.906 221.286 346.299 223.473 343.074 224.278C339.734 225.084 333.516 227.27 329.255 229.111C318.084 233.829 312.326 233.599 298.046 227.845C291.827 225.315 285.953 223.242 285.148 223.242C284.34 223.242 281.692 221.632 279.274 219.676C271.673 213.692 263.151 211.16 250.022 211.16C238.851 211.16 238.161 211.391 228.257 216.109C221.577 219.331 216.394 220.941 213.285 220.941C210.75 221.056 205.223 221.747 201.077 222.667L181.039 226.003ZM273.17 240.848C286.988 245.336 291.249 251.434 291.365 266.853C291.48 275.023 291.02 277.67 288.832 282.156C281.232 297.691 259.58 306.437 233.898 304.479C214.206 302.869 204.071 297.346 198.659 285.149C195.204 277.209 194.743 258.222 197.967 252.354C200.962 246.83 206.721 243.034 216.163 240.502C223.534 238.546 227.565 238.316 245.991 238.546C261.883 238.89 268.794 239.467 273.17 240.848ZM415.972 240.848C429.793 245.336 434.053 251.434 434.169 266.853C434.284 275.023 433.823 277.67 431.635 282.156C424.034 297.691 402.383 306.437 376.701 304.479C357.009 302.869 346.874 297.346 341.461 285.149C338.006 277.209 337.546 258.222 340.77 252.354C343.765 246.83 349.523 243.034 358.966 240.502C366.337 238.546 370.367 238.316 388.793 238.546C404.686 238.89 411.596 239.467 415.972 240.848Z" fill="#040C17"/>
<path fill-rule="evenodd" clip-rule="evenodd" d="M282.958 356.03C284.455 365.581 291.711 375.362 300.694 379.965C307.258 383.417 319.35 384.107 326.26 381.461C336.625 377.434 345.608 366.617 347.22 356.03H282.958Z" fill="#3E291B"/>
<path fill-rule="evenodd" clip-rule="evenodd" d="M281.974 332.045C280.22 332.682 275.915 334.752 272.407 336.744C268.899 338.655 264.913 340.727 263.558 341.285C260.768 342.399 252.557 342.718 249.926 341.842C248.411 341.363 248.092 341.523 248.092 343.036C248.092 345.506 253.275 350.126 258.935 352.835C266.269 356.339 275.835 355.622 287.794 350.604C292.41 349.244 299.087 345.603 304.455 343.754C316.283 339.575 322.325 341.973 332.996 346.542L342.323 350.604C354.282 355.622 363.848 356.339 371.183 352.835C376.923 350.126 382.264 345.267 381.866 343.196C381.706 342.399 380.988 341.922 380.351 342.081C379.713 342.24 376.763 342.32 373.734 342.32C368.95 342.24 367.515 341.842 361.776 338.895C346.23 330.77 348.462 331.407 336.982 331.407C327.814 331.407 325.98 331.725 320.879 333.558L315.058 335.628L309.318 333.558C302.303 331.088 287.395 330.292 281.974 332.045Z" fill="#2C1B18" fill-opacity="0.301961"/>
<path d="M355.721 578.002L363.116 571.994C364.83 570.602 367.349 570.861 368.742 572.574C370.136 574.286 369.876 576.802 368.162 578.195L364.583 581.102L390.568 602.978C392.281 604.37 392.541 606.887 391.148 608.599C390.357 609.57 389.205 610.074 388.043 610.074C387.156 610.074 386.263 609.781 385.522 609.179L355.721 584.202C354.787 583.443 354.245 582.305 354.245 581.102C354.245 579.899 354.787 578.76 355.721 578.002Z" fill="#7B4AE2"/>
<path d="M388.56 541.293C390.683 541.31 392.391 543.043 392.374 545.165L392.044 606.263C392.027 608.384 390.291 610.091 388.168 610.074C387.63 610.07 387.12 609.955 386.656 609.752C385.291 609.154 384.341 607.786 384.354 606.201L384.685 545.104C384.702 542.982 386.437 541.276 388.56 541.293Z" fill="#7B4AE2"/>
<path d="M405.437 583.321L408.169 581.102L398.441 573.198C396.727 571.806 396.468 569.29 397.861 567.577C399.254 565.865 401.773 565.606 403.487 566.998L417.03 578.002C417.965 578.76 418.507 579.899 418.507 581.102C418.507 582.305 417.965 583.443 417.03 584.202L410.483 589.522C409.742 590.123 408.849 590.417 407.963 590.417C406.8 590.417 405.648 589.913 404.857 588.942C403.464 587.23 403.724 584.713 405.437 583.321Z" fill="#C83267"/>
<path fill-rule="evenodd" clip-rule="evenodd" d="M235.624 466.93C201.652 470.236 170.789 482.889 145.107 503.977C123.008 522.046 116.843 536.407 100.663 556.86C133.629 591.033 177.958 619.988 226.298 635.98C258.543 646.58 280.54 650 315.088 650C349.639 650 371.634 646.58 403.881 635.98C452.649 620.396 493.728 594.859 530.759 558.205C505.396 525.495 494.957 504.057 454.091 483.914C436.931 475.365 416.778 469.21 401.346 467.614L394.078 466.959L393.733 466.952L392.939 472.402C389.485 498.392 356.895 517.542 316.241 517.542C275.589 517.542 243.573 498.619 239.426 472.288C238.621 467.045 238.274 466.588 235.626 466.93H235.624Z" fill="#090E16"/>
<path fill-rule="evenodd" clip-rule="evenodd" d="M256.698 420.613L256.218 420.462C254.905 420.049 261.355 417.106 263.641 416.013C270.36 412.803 279.123 413.459 290.077 418.056C294.306 419.302 300.422 422.637 305.34 424.331C316.174 428.16 321.709 425.962 331.484 421.778L340.029 418.056C350.983 413.459 359.746 412.803 366.465 416.013C368.718 417.077 370.943 418.457 372.637 419.932L373.147 420.376C353.539 435.321 290.686 442.75 256.698 420.613Z" fill="#2C1B18" fill-opacity="0.501961"/>
<path d="M382.489 560.392L386.339 557.264C387.231 556.539 388.542 556.675 389.267 557.566C389.993 558.457 389.858 559.768 388.965 560.492L387.103 562.006L400.628 573.396C401.521 574.12 401.656 575.431 400.93 576.322C400.519 576.828 399.919 577.09 399.314 577.09C398.853 577.09 398.388 576.938 398.002 576.624L382.489 563.62C382.003 563.225 381.721 562.632 381.721 562.006C381.721 561.38 382.003 560.787 382.489 560.392Z" fill="white"/>
<path d="M399.584 541.28C400.689 541.289 401.578 542.191 401.569 543.296L401.397 575.106C401.388 576.211 400.485 577.099 399.379 577.09C399.099 577.088 398.834 577.028 398.592 576.923C397.882 576.611 397.387 575.899 397.394 575.074L397.566 543.264C397.575 542.16 398.478 541.271 399.584 541.28Z" fill="white"/>
<path d="M408.369 563.161L409.791 562.006L404.727 557.891C403.835 557.167 403.7 555.856 404.425 554.965C405.15 554.073 406.461 553.938 407.353 554.663L414.404 560.392C414.89 560.787 415.172 561.38 415.172 562.006C415.172 562.632 414.89 563.225 414.404 563.62L410.996 566.39C410.609 566.703 410.145 566.856 409.684 566.856C409.078 566.856 408.478 566.594 408.067 566.088C407.342 565.196 407.477 563.886 408.369 563.161Z" fill="#7B4AE2"/>
</g>
<defs>
<filter id="filter0_f_21_4118" x="0.476257" y="0" width="610.296" height="610.296" filterUnits="userSpaceOnUse" color-interpolation-filters="sRGB">
<feFlood flood-opacity="0" result="BackgroundImageFix"/>
<feBlend mode="normal" in="SourceGraphic" in2="BackgroundImageFix" result="shape"/>
<feGaussianBlur stdDeviation="25" result="effect1_foregroundBlur_21_4118"/>
</filter>
<filter id="filter1_i_21_4118" x="100.663" y="51.7905" width="430.095" height="602.209" filterUnits="userSpaceOnUse" color-interpolation-filters="sRGB">
<feFlood flood-opacity="0" result="BackgroundImageFix"/>
<feBlend mode="normal" in="SourceGraphic" in2="BackgroundImageFix" result="shape"/>
<feColorMatrix in="SourceAlpha" type="matrix" values="0 0 0 0 0 0 0 0 0 0 0 0 0 0 0 0 0 0 127 0" result="hardAlpha"/>
<feOffset dy="4"/>
<feGaussianBlur stdDeviation="2"/>
<feComposite in2="hardAlpha" operator="arithmetic" k2="-1" k3="1"/>
<feColorMatrix type="matrix" values="0 0 0 0 0 0 0 0 0 0 0 0 0 0 0 0 0 0 0.25 0"/>
<feBlend mode="normal" in2="shape" result="effect1_innerShadow_21_4118"/>
</filter>
</defs>
</svg>
